<svg width="111" height="61" viewBox="0 0 111 61" fill="none" xmlns="http://www.w3.org/2000/svg">
<g clip-path="url(#clip0_8_4)">
<path d="M51.8963 10.1775L47.6002 18.63C44.5071 16.3875 38.3208 8.79749 29.2131 10.1775C20.621 10.1775 15.2939 15.87 12.0289 21.2175C8.76393 26.565 9.96683 36.7425 9.96683 37.7775C9.96683 38.6055 9.50859 39.5025 9.27946 39.8475L4.63972 44.6775C0.8592 41.055 -1.54659 28.8075 2.23394 19.4925C6.01446 10.1775 14.2629 0.862489 29.2131 0.34499C41.1733 -0.06901 49.3187 6.72749 51.8963 10.1775Z" fill="#58585A"/>
<path d="M24.5734 32.085L2.23393 54.3375C1.54124 55.0275 2.05987 55.7751 2.40578 56.0625C2.86402 56.5224 3.91799 57.546 4.46788 57.96C5.01778 58.374 5.61348 58.1325 5.84262 57.96L28.8694 35.0175C29.4193 34.4655 29.0413 33.5225 28.8694 33.12C28.5831 32.775 27.804 31.947 26.9792 31.395C26.1543 30.843 25.0316 31.625 24.5734 32.085Z" fill="#FD7014"/>
<path d="M43.9916 56.7525C32.8562 62.8245 20.2201 58.7076 15.2939 55.89L18.9026 51.9225C19.59 51.1176 21.549 49.611 23.886 50.025C49.6623 53.475 50.5216 30.36 51.0371 25.7025C54.4739 6.3825 69.2523 0.517503 80.2502 0.345003C91.2481 0.172503 110.151 9.4875 109.979 29.4975C109.807 49.5075 93.6539 59.685 80.2502 60.03C69.5273 60.306 61.1184 53.7051 58.2545 50.37L63.2379 41.9175C65.7581 44.7351 72.6892 50.37 80.2502 50.37C95.5098 49.956 100.127 36.2826 100.528 29.4975C100.184 23.23 95.6473 10.5915 80.2502 10.1775C64.8532 9.7635 59.9729 26.105 59.4573 34.3275C58.9418 39.2724 55.1269 50.6805 43.9916 56.7525Z" fill="#58585A"/>
<path d="M51.8963 10.1775L47.6002 18.63C44.5071 16.3875 38.3208 8.79749 29.2131 10.1775C20.621 10.1775 15.2939 15.87 12.0289 21.2175C8.76393 26.565 9.96683 36.7425 9.96683 37.7775C9.96683 38.6055 9.50859 39.5025 9.27946 39.8475L4.63972 44.6775C0.8592 41.055 -1.54659 28.8075 2.23394 19.4925C6.01446 10.1775 14.2629 0.862489 29.2131 0.34499C41.1733 -0.06901 49.3187 6.72749 51.8963 10.1775Z" stroke="#58585A"/>
<path d="M24.5734 32.085L2.23393 54.3375C1.54124 55.0275 2.05987 55.7751 2.40578 56.0625C2.86402 56.5224 3.91799 57.546 4.46788 57.96C5.01778 58.374 5.61348 58.1325 5.84262 57.96L28.8694 35.0175C29.4193 34.4655 29.0413 33.5225 28.8694 33.12C28.5831 32.775 27.804 31.947 26.9792 31.395C26.1543 30.843 25.0316 31.625 24.5734 32.085Z" stroke="#FD7014"/>
<path d="M43.9916 56.7525C32.8562 62.8245 20.2201 58.7076 15.2939 55.89L18.9026 51.9225C19.59 51.1176 21.549 49.611 23.886 50.025C49.6624 53.475 50.5216 30.36 51.0371 25.7025C54.4739 6.3825 69.2523 0.517503 80.2502 0.345003C91.2481 0.172503 110.151 9.4875 109.979 29.4975C109.807 49.5075 93.6539 59.685 80.2502 60.03C69.5273 60.306 61.1184 53.7051 58.2545 50.37L63.2379 41.9175C65.7581 44.7351 72.6892 50.37 80.2502 50.37C95.5098 49.956 100.127 36.2826 100.528 29.4975C100.184 23.23 95.6473 10.5915 80.2502 10.1775C64.8532 9.7635 59.9729 26.105 59.4573 34.3275C58.9418 39.2724 55.1269 50.6805 43.9916 56.7525Z" stroke="#58585A"/>
</g>
<defs>
<clipPath id="clip0_8_4">
<rect width="110.323" height="60.375" fill="white"/>
</clipPath>
</defs>
</svg>
